<mxfile host="app.diagrams.net" agent="Mozilla/5.0 (Windows NT 10.0; Win64; x64) AppleWebKit/537.36 (KHTML, like Gecko) Chrome/140.0.0.0 Safari/537.36 Edg/140.0.0.0" version="28.2.0">
  <diagram name="第 1 页" id="GQqanQzWa12vKe3YUEnK">
    <mxGraphModel dx="1137" dy="608" grid="1" gridSize="10" guides="1" tooltips="1" connect="1" arrows="1" fold="1" page="1" pageScale="1" pageWidth="1169" pageHeight="827" math="0" shadow="0">
      <root>
        <mxCell id="0" />
        <mxCell id="1" parent="0" />
        <mxCell id="u0Yxm3so_UA4RI0_wiPg-10" value="XPU" style="swimlane;whiteSpace=wrap;html=1;labelBackgroundColor=none;rounded=0;" parent="1" vertex="1">
          <mxGeometry x="170" y="50" width="290" height="1210" as="geometry" />
        </mxCell>
        <mxCell id="u0Yxm3so_UA4RI0_wiPg-1" value="系统上电" style="rounded=0;whiteSpace=wrap;html=1;fontSize=15;labelBackgroundColor=none;" parent="u0Yxm3so_UA4RI0_wiPg-10" vertex="1">
          <mxGeometry x="110" y="40" width="100" height="50" as="geometry" />
        </mxCell>
        <mxCell id="MoBO-HjPDKxQ-JYx2uST-12" style="edgeStyle=orthogonalEdgeStyle;rounded=0;orthogonalLoop=1;jettySize=auto;html=1;entryX=0;entryY=0.5;entryDx=0;entryDy=0;labelBackgroundColor=none;fontColor=default;" edge="1" parent="u0Yxm3so_UA4RI0_wiPg-10" source="u0Yxm3so_UA4RI0_wiPg-2" target="u0Yxm3so_UA4RI0_wiPg-1">
          <mxGeometry relative="1" as="geometry">
            <Array as="points">
              <mxPoint x="40" y="220" />
              <mxPoint x="40" y="70" />
            </Array>
          </mxGeometry>
        </mxCell>
        <mxCell id="MoBO-HjPDKxQ-JYx2uST-13" value="否" style="edgeLabel;html=1;align=center;verticalAlign=middle;resizable=0;points=[];labelBackgroundColor=none;rounded=0;" vertex="1" connectable="0" parent="MoBO-HjPDKxQ-JYx2uST-12">
          <mxGeometry x="0.147" y="-1" relative="1" as="geometry">
            <mxPoint as="offset" />
          </mxGeometry>
        </mxCell>
        <mxCell id="u0Yxm3so_UA4RI0_wiPg-2" value="自车是否在园区" style="rhombus;whiteSpace=wrap;html=1;rounded=0;fontSize=15;labelBackgroundColor=none;" parent="u0Yxm3so_UA4RI0_wiPg-10" vertex="1">
          <mxGeometry x="100" y="160" width="120" height="120" as="geometry" />
        </mxCell>
        <mxCell id="u0Yxm3so_UA4RI0_wiPg-3" value="" style="edgeStyle=orthogonalEdgeStyle;rounded=0;orthogonalLoop=1;jettySize=auto;html=1;fontSize=15;labelBackgroundColor=none;fontColor=default;" parent="u0Yxm3so_UA4RI0_wiPg-10" source="u0Yxm3so_UA4RI0_wiPg-1" target="u0Yxm3so_UA4RI0_wiPg-2" edge="1">
          <mxGeometry relative="1" as="geometry" />
        </mxCell>
        <mxCell id="MoBO-HjPDKxQ-JYx2uST-23" value="" style="rounded=0;whiteSpace=wrap;html=1;hachureGap=4;fontFamily=Architects Daughter;fontSource=https%3A%2F%2Ffonts.googleapis.com%2Fcss%3Ffamily%3DArchitects%2BDaughter;labelBackgroundColor=none;" vertex="1" parent="u0Yxm3so_UA4RI0_wiPg-10">
          <mxGeometry x="110" y="470" width="120" height="60" as="geometry" />
        </mxCell>
        <mxCell id="MoBO-HjPDKxQ-JYx2uST-1" value="EXNGP" style="swimlane;whiteSpace=wrap;html=1;labelBackgroundColor=none;fillStyle=auto;swimlaneFillColor=none;rounded=0;" vertex="1" parent="1">
          <mxGeometry x="460" y="50" width="330" height="1210" as="geometry" />
        </mxCell>
        <mxCell id="MoBO-HjPDKxQ-JYx2uST-19" value="" style="edgeStyle=orthogonalEdgeStyle;rounded=0;hachureGap=4;orthogonalLoop=1;jettySize=auto;html=1;fontFamily=Architects Daughter;fontSource=https%3A%2F%2Ffonts.googleapis.com%2Fcss%3Ffamily%3DArchitects%2BDaughter;fontColor=default;labelBackgroundColor=none;" edge="1" parent="MoBO-HjPDKxQ-JYx2uST-1" source="MoBO-HjPDKxQ-JYx2uST-9" target="MoBO-HjPDKxQ-JYx2uST-18">
          <mxGeometry relative="1" as="geometry" />
        </mxCell>
        <mxCell id="MoBO-HjPDKxQ-JYx2uST-9" value="开始建图" style="rounded=0;whiteSpace=wrap;html=1;labelBackgroundColor=none;" vertex="1" parent="MoBO-HjPDKxQ-JYx2uST-1">
          <mxGeometry x="105" y="190" width="120" height="60" as="geometry" />
        </mxCell>
        <mxCell id="MoBO-HjPDKxQ-JYx2uST-21" value="" style="edgeStyle=orthogonalEdgeStyle;rounded=0;hachureGap=4;orthogonalLoop=1;jettySize=auto;html=1;fontFamily=Architects Daughter;fontSource=https%3A%2F%2Ffonts.googleapis.com%2Fcss%3Ffamily%3DArchitects%2BDaughter;fontColor=default;labelBackgroundColor=none;" edge="1" parent="MoBO-HjPDKxQ-JYx2uST-1" source="MoBO-HjPDKxQ-JYx2uST-18" target="MoBO-HjPDKxQ-JYx2uST-20">
          <mxGeometry relative="1" as="geometry" />
        </mxCell>
        <mxCell id="MoBO-HjPDKxQ-JYx2uST-18" value="感知成功" style="whiteSpace=wrap;html=1;rounded=0;labelBackgroundColor=none;" vertex="1" parent="MoBO-HjPDKxQ-JYx2uST-1">
          <mxGeometry x="105" y="330" width="120" height="60" as="geometry" />
        </mxCell>
        <mxCell id="MoBO-HjPDKxQ-JYx2uST-20" value="保存地图" style="whiteSpace=wrap;html=1;rounded=0;labelBackgroundColor=none;" vertex="1" parent="MoBO-HjPDKxQ-JYx2uST-1">
          <mxGeometry x="105" y="470" width="120" height="60" as="geometry" />
        </mxCell>
        <mxCell id="MoBO-HjPDKxQ-JYx2uST-24" value="" style="whiteSpace=wrap;html=1;fontSize=15;rounded=0;labelBackgroundColor=none;" vertex="1" parent="MoBO-HjPDKxQ-JYx2uST-1">
          <mxGeometry x="105" y="35" width="120" height="60" as="geometry" />
        </mxCell>
        <mxCell id="MoBO-HjPDKxQ-JYx2uST-10" style="edgeStyle=orthogonalEdgeStyle;rounded=0;orthogonalLoop=1;jettySize=auto;html=1;entryX=0;entryY=0.5;entryDx=0;entryDy=0;labelBackgroundColor=none;fontColor=default;" edge="1" parent="1" source="u0Yxm3so_UA4RI0_wiPg-2" target="MoBO-HjPDKxQ-JYx2uST-9">
          <mxGeometry relative="1" as="geometry" />
        </mxCell>
        <mxCell id="MoBO-HjPDKxQ-JYx2uST-11" value="是" style="edgeLabel;html=1;align=center;verticalAlign=middle;resizable=0;points=[];labelBackgroundColor=none;rounded=0;" vertex="1" connectable="0" parent="MoBO-HjPDKxQ-JYx2uST-10">
          <mxGeometry x="0.226" relative="1" as="geometry">
            <mxPoint as="offset" />
          </mxGeometry>
        </mxCell>
        <mxCell id="MoBO-HjPDKxQ-JYx2uST-22" style="edgeStyle=orthogonalEdgeStyle;rounded=0;hachureGap=4;orthogonalLoop=1;jettySize=auto;html=1;fontFamily=Architects Daughter;fontSource=https%3A%2F%2Ffonts.googleapis.com%2Fcss%3Ffamily%3DArchitects%2BDaughter;fontColor=default;entryX=1;entryY=0.5;entryDx=0;entryDy=0;labelBackgroundColor=none;" edge="1" parent="1" source="MoBO-HjPDKxQ-JYx2uST-20" target="MoBO-HjPDKxQ-JYx2uST-23">
          <mxGeometry relative="1" as="geometry">
            <mxPoint x="300" y="550" as="targetPoint" />
          </mxGeometry>
        </mxCell>
        <mxCell id="MoBO-HjPDKxQ-JYx2uST-25" value="" style="edgeStyle=orthogonalEdgeStyle;rounded=0;orthogonalLoop=1;jettySize=auto;html=1;fontFamily=Helvetica;fontSize=15;fontColor=default;labelBackgroundColor=none;" edge="1" parent="1" source="u0Yxm3so_UA4RI0_wiPg-1" target="MoBO-HjPDKxQ-JYx2uST-24">
          <mxGeometry relative="1" as="geometry" />
        </mxCell>
      </root>
    </mxGraphModel>
  </diagram>
</mxfile>
